<svg width="75" height="62" viewBox="0 0 75 62" fill="none" xmlns="http://www.w3.org/2000/svg">
<path fill-rule="evenodd" clip-rule="evenodd" d="M5.25804 0.660072C3.65357 1.41696 2.46964 2.59855 1.08817 4.82318C-0.160714 6.83395 -0.286942 8.23715 0.669643 9.4665C1.77054 10.8813 2.91563 10.5629 4.47255 8.40884C5.23527 7.35418 6.28359 6.2892 6.8019 6.04221C7.3202 5.79565 10.1501 5.59384 13.0905 5.59384C21.5206 5.59384 21.7634 5.87956 21.7634 15.8039C21.7634 23.3143 21.5083 24.2312 19.4792 24.0126C17.7787 23.8293 17.4228 22.6968 17.4104 17.427C17.3997 12.8417 17.3163 12.4532 16.1772 11.6825C15.1319 10.9755 14.8048 11.0552 13.88 12.2441C13.1066 13.2376 13.058 13.581 13.058 18.044C13.058 21.353 13.2171 23.2996 13.584 24.4782C14.0625 26.0139 14.0625 26.3491 13.584 28.1594C12.8638 30.8862 12.9214 32.2102 13.8653 34.6061L14.6725 36.6556L14.0213 38.0743C12.9318 40.4469 12.8638 43.3213 13.8388 45.7589L14.6725 47.8433L13.9497 49.4164C13.415 50.58 13.2265 51.6966 13.2261 53.7017L13.2254 56.4135L8.87277 56.1402C6.47879 55.9896 4.02254 55.6708 3.41417 55.4311C1.94866 54.8545 0.730915 55.2947 0.280915 56.5641C-0.357924 58.3661 0.191184 59.7736 1.93761 60.8107C3.47511 61.7233 3.91038 61.7509 18.9174 61.8739L34.3192 62L35.9096 60.9643L37.5 59.9281L39.0904 60.9643L40.6808 62L56.0826 61.8739C71.0896 61.7509 71.5249 61.7233 73.0624 60.8107C74.8088 59.7736 75.3579 58.3661 74.7191 56.5641C74.2694 55.2956 73.0523 54.8549 71.5858 55.4294C70.9775 55.6678 68.5212 55.981 66.1272 56.126L61.7746 56.3889L61.7739 53.6897C61.7736 51.697 61.584 50.5778 61.0503 49.4164L60.3275 47.8433L61.1612 45.7589C62.1362 43.3213 62.0682 40.4469 60.9787 38.0743L60.3275 36.6556L61.1347 34.6061C62.0786 32.2102 62.1362 30.8862 61.416 28.1594C60.9375 26.3491 60.9375 26.0139 61.416 24.4782C61.7829 23.2996 61.942 21.353 61.942 18.044C61.942 13.581 61.8934 13.2376 61.12 12.2441C60.1952 11.0552 59.8681 10.9755 58.8228 11.6825C57.6837 12.4532 57.6003 12.8417 57.5896 17.427C57.5772 22.6968 57.2213 23.8293 55.5208 24.0126C53.4917 24.2312 53.2366 23.3143 53.2366 15.8039C53.2366 5.87956 53.4794 5.59384 61.9095 5.59384C64.8499 5.59384 67.6798 5.79565 68.1981 6.04221C68.7164 6.2892 69.7647 7.35418 70.5275 8.40884C72.0844 10.5629 73.2295 10.8813 74.3304 9.4665C75.2869 8.23715 75.1607 6.83395 73.9118 4.82318C71.2329 0.50947 69.9767 0 62.0223 0C54.596 0 53.6977 0.270654 51.3435 3.21818C49.6242 5.37095 48.89 7.38559 48.8859 9.9622L48.8839 11.1033L44.4475 11.2531C40.5944 11.383 39.8461 11.528 38.7556 12.3564L37.5 13.3103L36.2444 12.3564C35.1539 11.528 34.4056 11.383 30.5525 11.2531L26.1161 11.1033V9.93122C26.1161 9.28664 25.8767 7.85548 25.5837 6.75134C24.9382 4.31716 22.4501 1.2612 20.5031 0.511623C18.5602 -0.236661 6.91875 -0.123066 5.25804 0.660072ZM34.6302 17.8878C35.316 18.7695 35.3019 20.5944 34.6021 21.5884C34.1247 22.2665 33.4989 22.3754 30.082 22.3754H26.1161V19.7936V17.2118H30.1102C33.2943 17.2118 34.2107 17.3491 34.6302 17.8878ZM48.8839 19.7936V22.3754H44.9762C40.6359 22.3754 39.8438 21.9713 39.8438 19.7575C39.8438 17.535 40.4843 17.2118 44.8898 17.2118H48.8839V19.7936ZM5.17467 20.85C4.39888 21.847 4.35268 22.1787 4.35268 26.7782C4.35268 32.119 3.9663 33.5631 2.53728 33.5631C1.4481 33.5631 0 35.15 0 36.3436C0 36.8918 0.283928 37.7911 0.631138 38.3419C2.08025 40.6418 6.40346 38.5984 7.92589 34.894C8.62935 33.1827 8.70536 32.437 8.70536 27.2562C8.70536 22.0884 8.63839 21.4287 8.03571 20.6542C7.14007 19.5031 6.17076 19.5694 5.17467 20.85ZM66.9643 20.6542C66.3616 21.4287 66.2946 22.0884 66.2946 27.2562C66.2946 32.437 66.3707 33.1827 67.0741 34.894C68.5965 38.5984 72.9198 40.6418 74.3689 38.3419C74.7161 37.7911 75 36.8918 75 36.3436C75 35.15 73.5519 33.5631 72.4627 33.5631C71.0337 33.5631 70.6473 32.119 70.6473 26.7782C70.6473 22.1787 70.6011 21.847 69.8253 20.85C68.8292 19.5694 67.8599 19.5031 66.9643 20.6542ZM34.6302 29.0755C34.9195 29.4477 35.1562 30.3053 35.1562 30.9813C35.1562 33.468 34.8419 33.5631 26.6217 33.5631C22.5067 33.5631 18.8896 33.44 18.5843 33.2894C17.9458 32.9744 17.3504 31.2537 17.5959 30.4318C17.702 30.0764 18.3948 29.8711 19.5117 29.8651C20.4958 29.8595 21.7004 29.5445 22.2656 29.1448C23.7164 28.1181 33.8411 28.0617 34.6302 29.0755ZM52.6674 29.1258C53.2671 29.5325 54.5093 29.8573 55.4883 29.8634C56.6042 29.8707 57.298 30.0764 57.4041 30.4318C57.6496 31.2537 57.0542 32.9744 56.4157 33.2894C56.1104 33.44 52.4933 33.5631 48.3783 33.5631C40.1581 33.5631 39.8438 33.468 39.8438 30.9813C39.8438 28.6052 40.354 28.3995 46.2459 28.3995C50.62 28.3995 51.7912 28.532 52.6674 29.1258ZM34.5439 40.2993C35.2748 41.1492 35.3401 42.9719 34.6815 44.1307C34.2415 44.9048 33.683 44.9753 27.0496 45.0963C22.6664 45.1763 19.5388 45.0545 18.9804 44.7813C17.3916 44.005 17.1365 41.1285 18.5491 39.9164C18.7517 39.7425 22.2958 39.5975 26.4244 39.5936C32.9448 39.5881 34.0122 39.681 34.5439 40.2993ZM56.4509 39.9164C57.8635 41.1285 57.6084 44.005 56.0196 44.7813C55.4612 45.0545 52.3336 45.1763 47.9504 45.0963C41.317 44.9753 40.7585 44.9048 40.3185 44.1307C39.683 43.0123 39.7182 41.3389 40.3979 40.3742C40.9038 39.6556 41.6096 39.5876 48.5173 39.5936C52.6781 39.5975 56.2483 39.7425 56.4509 39.9164ZM34.5439 51.487C35.3518 52.4268 35.3233 54.4328 34.4866 55.5081C33.8585 56.3154 33.3707 56.3687 26.5962 56.3687C22.1468 56.3687 19.121 56.1936 18.7118 55.9122C17.3531 54.9776 17.2594 52.2108 18.5491 51.104C18.7517 50.9302 22.2958 50.7852 26.4244 50.7813C32.9448 50.7757 34.0122 50.8687 34.5439 51.487ZM56.4509 51.104C57.7406 52.2108 57.6469 54.9776 56.2882 55.9122C55.879 56.1936 52.8532 56.3687 48.4038 56.3687C41.6294 56.3687 41.1415 56.3154 40.5134 55.5081C39.6998 54.4625 39.6462 52.629 40.3979 51.5619C40.9038 50.8433 41.6096 50.7753 48.5173 50.7813C52.6781 50.7852 56.2483 50.9302 56.4509 51.104Z" fill="#F15A38"/>
</svg>
