<svg width="178" height="56" viewBox="0 0 178 56" fill="none" xmlns="http://www.w3.org/2000/svg">
<g clip-path="url(#clip0)">
<path d="M92.3254 6.98033C93.109 6.9694 93.8867 7.11835 94.6112 7.41815C95.3358 7.71794 95.992 8.16233 96.54 8.72431C97.1221 9.31172 97.5779 10.0126 97.8793 10.7838C98.1806 11.5549 98.3211 12.3798 98.2921 13.2075V22.8644H94.2696V14.0504C94.3121 13.1603 94.0038 12.2891 93.4114 11.625C93.1353 11.3321 92.8007 11.1009 92.4295 10.9464C92.0583 10.7919 91.6589 10.7176 91.2571 10.7283C90.759 10.707 90.2629 10.8035 89.8087 11.0098C89.3546 11.2162 88.9551 11.5267 88.6425 11.9164C88.0019 12.7084 87.6831 13.886 87.6861 15.4492V22.8644H83.6233V14.0504C83.6659 13.1603 83.3576 12.2891 82.7652 11.625C82.4892 11.3319 82.1547 11.1005 81.7835 10.946C81.4123 10.7915 81.0127 10.7173 80.6109 10.7283C80.1178 10.7054 79.6263 10.7999 79.1765 11.0041C78.7267 11.2082 78.3315 11.5162 78.0231 11.9029C77.4093 12.683 77.1024 13.8651 77.1024 15.4492V22.8644H73.0308V7.4421H77.0935V8.71086C77.7005 8.12502 78.4202 7.66942 79.2086 7.37189C79.9971 7.07435 80.8377 6.94112 81.6791 6.98033C83.89 6.98033 85.572 7.82467 86.7251 9.51336C88.0779 7.82467 89.9446 6.98033 92.3254 6.98033Z" fill="#262626"/>
<path d="M102.721 1.13415C103.187 0.668471 103.818 0.406982 104.476 0.406982C105.133 0.406982 105.764 0.668471 106.23 1.13415C106.458 1.35644 106.638 1.62287 106.76 1.91726C106.883 2.21166 106.944 2.52789 106.94 2.84675C106.948 3.16356 106.889 3.4784 106.766 3.77052C106.644 4.06263 106.461 4.32537 106.23 4.54141C105.747 4.97962 105.12 5.2223 104.469 5.2223C103.818 5.2223 103.19 4.97962 102.708 4.54141C102.482 4.32242 102.303 4.05872 102.184 3.76701C102.065 3.4753 102.007 3.16193 102.015 2.84675C102.012 2.52832 102.073 2.21252 102.194 1.91825C102.315 1.62398 102.495 1.35729 102.721 1.13415ZM106.507 22.8644H102.444V7.44206H106.507V22.8644Z" fill="#262626"/>
<path d="M119.924 6.98031C120.754 6.94296 121.581 7.08362 122.352 7.39288C123.123 7.70213 123.819 8.17286 124.394 8.7736C125.545 10.0502 126.148 11.73 126.074 13.4496V22.8644H122.016V14.3463C122.064 13.3965 121.763 12.462 121.171 11.7191C120.891 11.3891 120.54 11.1272 120.145 10.9533C119.749 10.7793 119.319 10.6978 118.887 10.7148C116.343 10.7148 115.072 12.4842 115.075 16.023V22.8644H111.012V7.44208H115.075V8.83188C115.715 8.20767 116.475 7.72137 117.309 7.40294C118.143 7.08451 119.033 6.94068 119.924 6.98031Z" fill="#262626"/>
<path d="M145.431 0.623047V22.8643H141.369V21.6404C139.924 22.7778 138.127 23.3697 136.291 23.3127C135.297 23.3171 134.314 23.1137 133.402 22.7154C132.491 22.3171 131.673 21.7326 131 20.9993C130.258 20.2266 129.678 19.3129 129.295 18.3119C128.911 17.3109 128.731 16.243 128.765 15.1711C128.734 14.0977 128.918 13.029 129.306 12.028C129.693 11.027 130.277 10.1141 131.022 9.34293C131.692 8.60804 132.508 8.02122 133.416 7.61984C134.325 7.21847 135.307 7.01134 136.3 7.01165C138.142 6.94603 139.944 7.5494 141.378 8.71079V0.64098L145.431 0.623047ZM136.998 19.7575C137.565 19.7583 138.126 19.6458 138.65 19.4264C139.173 19.207 139.648 18.8852 140.046 18.4797C140.488 18.0504 140.836 17.5331 141.066 16.961C141.297 16.3888 141.406 15.7746 141.387 15.1577C141.404 14.5397 141.294 13.9248 141.063 13.3516C140.833 12.7783 140.486 12.2591 140.046 11.8266C139.65 11.4163 139.177 11.0901 138.653 10.8675C138.129 10.6449 137.566 10.5304 136.998 10.531C136.423 10.5128 135.851 10.6159 135.319 10.8337C134.787 11.0515 134.307 11.3791 133.909 11.7953C133.494 12.2467 133.173 12.7766 132.964 13.3539C132.756 13.9311 132.664 14.5443 132.693 15.1577C132.662 15.7691 132.753 16.3808 132.962 16.9561C133.171 17.5315 133.493 18.0588 133.909 18.5066C134.309 18.9192 134.79 19.2436 135.322 19.459C135.854 19.6744 136.424 19.776 136.998 19.7575Z" fill="#262626"/>
<path d="M80.1954 47.316C82.2006 47.316 83.5415 46.2998 84.2178 44.2674L88.0437 45.2403C87.6444 46.9645 86.6363 48.4854 85.2056 49.5217C83.5755 50.68 81.5975 51.24 79.6042 51.1077C77.6109 50.9755 75.7238 50.159 74.2599 48.7954C73.4574 48.0277 72.8258 47.0983 72.4068 46.0683C71.9877 45.0384 71.7907 43.9311 71.8286 42.8193C71.7915 41.705 71.9889 40.5953 72.4078 39.5625C72.8267 38.5298 73.4578 37.5971 74.2599 36.8252C75.0454 36.0573 75.9757 35.4544 76.9965 35.0517C78.0172 34.6491 79.1078 34.4549 80.2043 34.4805C81.9724 34.4532 83.7003 35.0109 85.1207 36.0676C86.5339 37.1035 87.5637 38.5812 88.0482 40.2684L84.0659 41.4026C83.5415 39.3284 82.2558 38.2898 80.2088 38.2868C79.6243 38.2641 79.0415 38.3644 78.498 38.5814C77.9546 38.7984 77.4624 39.1272 77.0533 39.5466C76.646 39.9846 76.3295 40.4995 76.1223 41.0614C75.9152 41.6232 75.8214 42.2208 75.8466 42.8193C75.8218 43.4151 75.9158 44.0098 76.123 44.5687C76.3302 45.1276 76.6465 45.6394 77.0533 46.0741C77.4632 46.4875 77.954 46.8112 78.4948 47.0249C79.0355 47.2386 79.6145 47.3377 80.1954 47.316Z" fill="#262626"/>
<path d="M106.918 34.969V50.6603H102.797V49.4364C101.315 50.5862 99.4767 51.1779 97.6038 51.1086C96.5903 51.1129 95.5869 50.905 94.658 50.4982C93.7291 50.0914 92.8951 49.4946 92.2092 48.746C91.4495 47.9597 90.8551 47.0283 90.4612 46.0071C90.0673 44.9858 89.8821 43.8957 89.9164 42.8012C89.8827 41.703 90.0695 40.6092 90.4657 39.5849C90.8619 38.5605 91.4594 37.6266 92.2226 36.8385C92.9037 36.0914 93.7322 35.4944 94.6555 35.0854C95.5787 34.6763 96.5766 34.4642 97.5859 34.4624C99.4767 34.3938 101.328 35.015 102.797 36.2109V34.969H106.918ZM98.3279 47.5221C98.9061 47.5229 99.4788 47.408 100.012 47.1839C100.546 46.9599 101.029 46.6313 101.434 46.2174C101.881 45.7793 102.231 45.2521 102.462 44.6698C102.693 44.0876 102.799 43.4632 102.775 42.8371C102.798 42.2084 102.691 41.5817 102.46 40.9967C102.23 40.4117 101.88 39.8812 101.434 39.4388C101.032 39.0184 100.55 38.6838 100.017 38.4549C99.4827 38.2261 98.9084 38.1079 98.3279 38.1073C97.7418 38.0892 97.1585 38.1949 96.6157 38.4173C96.0729 38.6397 95.5828 38.974 95.1769 39.3984C94.7547 39.8596 94.4279 40.4002 94.2154 40.9889C94.0029 41.5776 93.9089 42.2027 93.9389 42.8281C93.9075 43.4509 94.001 44.0737 94.2136 44.6597C94.4262 45.2457 94.7538 45.783 95.1769 46.2399C95.5842 46.6618 96.0749 46.9938 96.6175 47.2146C97.16 47.4354 97.7426 47.5401 98.3279 47.5221Z" fill="#262626"/>
<path d="M120.626 34.4805C121.635 34.4823 122.633 34.6944 123.556 35.1035C124.48 35.5125 125.308 36.1095 125.989 36.8566C126.752 37.6447 127.35 38.5787 127.746 39.603C128.142 40.6273 128.329 41.7211 128.295 42.8193C128.334 43.9113 128.155 44.9999 127.767 46.021C127.379 47.0421 126.792 47.9748 126.038 48.7641C125.349 49.5117 124.511 50.1064 123.579 50.5102C122.647 50.914 121.641 51.1179 120.626 51.1088C118.756 51.1662 116.925 50.5651 115.45 49.4097V55.9821H111.312V34.9692H115.45V36.229C116.91 35.0413 118.747 34.4206 120.626 34.4805ZM119.906 47.5222C120.491 47.5415 121.073 47.4382 121.616 47.2189C122.158 46.9997 122.649 46.6693 123.057 46.249C123.48 45.7921 123.808 45.2548 124.021 44.6688C124.233 44.0829 124.327 43.4601 124.295 42.8373C124.325 42.2119 124.231 41.5867 124.019 40.998C123.806 40.4093 123.479 39.8687 123.057 39.4076C122.652 38.9815 122.162 38.6455 121.62 38.4216C121.077 38.1976 120.493 38.0906 119.906 38.1075C119.325 38.1098 118.75 38.2302 118.216 38.4613C117.682 38.6925 117.2 39.0296 116.8 39.4524C116.354 39.8948 116.005 40.4253 115.774 41.0103C115.543 41.5953 115.436 42.222 115.459 42.8507C115.435 43.4769 115.541 44.1012 115.772 44.6834C116.003 45.2657 116.353 45.7929 116.8 46.2311C117.206 46.6425 117.69 46.9686 118.224 47.1903C118.757 47.412 119.329 47.5248 119.906 47.5222Z" fill="#262626"/>
<path d="M131.951 28.5176C132.299 28.1628 132.744 27.9194 133.23 27.8183C133.716 27.7172 134.22 27.7629 134.68 27.9496C135.14 28.1363 135.534 28.4556 135.813 28.8672C136.092 29.2787 136.243 29.764 136.247 30.2616C136.256 30.5847 136.197 30.9062 136.073 31.2045C135.949 31.5029 135.763 31.7714 135.527 31.9921C135.035 32.4332 134.399 32.6771 133.739 32.6771C133.08 32.6771 132.443 32.4332 131.951 31.9921C131.721 31.7684 131.54 31.499 131.419 31.201C131.298 30.9031 131.24 30.5831 131.25 30.2616C131.244 29.9385 131.303 29.6176 131.424 29.318C131.544 29.0184 131.724 28.7462 131.951 28.5176ZM135.809 50.6602H131.67V34.9689H135.809V50.6602Z" fill="#262626"/>
<path d="M150.62 46.5L151.809 49.9611C150.568 50.6819 149.167 51.0824 147.733 51.1267C145.807 51.1267 144.305 50.6066 143.214 49.5665C142.124 48.5264 141.583 46.9618 141.583 44.8636V38.3495H138.227V34.9691H141.583V30.199H145.704V34.9691H150.817V38.3674H145.704V44.5498C145.704 46.3431 146.467 47.2397 147.992 47.2397C148.916 47.2136 149.818 46.9595 150.62 46.5Z" fill="#262626"/>
<path d="M169.468 34.9691V50.6604H165.325V49.4365C163.847 50.5836 162.016 51.1753 160.149 51.1088C159.136 51.1128 158.132 50.9047 157.203 50.4979C156.275 50.0911 155.441 49.4945 154.754 48.7461C153.995 47.9596 153.402 47.028 153.009 46.0068C152.615 44.9856 152.431 43.8955 152.466 42.8013C152.432 41.7031 152.619 40.6093 153.015 39.585C153.412 38.5607 154.009 37.6267 154.772 36.8387C155.453 36.0915 156.282 35.4945 157.205 35.0855C158.128 34.6765 159.126 34.4643 160.136 34.4625C162.012 34.3968 163.849 35.0111 165.311 36.1931V34.9691H169.468ZM160.873 47.5222C161.451 47.5229 162.023 47.4079 162.555 47.1839C163.088 46.9599 163.571 46.6313 163.975 46.2176C164.422 45.7794 164.772 45.2522 165.003 44.6699C165.234 44.0877 165.34 43.4634 165.316 42.8372C165.34 42.2084 165.234 41.5813 165.003 40.9962C164.772 40.411 164.422 39.8806 163.975 39.4389C163.575 39.0162 163.094 38.6791 162.561 38.448C162.028 38.2168 161.454 38.0964 160.873 38.094C160.286 38.0756 159.702 38.181 159.159 38.4034C158.615 38.6258 158.124 38.9603 157.718 39.3851C157.296 39.8468 156.97 40.3875 156.758 40.9761C156.545 41.5646 156.451 42.1895 156.48 42.8148C156.449 43.4375 156.543 44.06 156.756 44.6458C156.968 45.2317 157.295 45.7691 157.718 46.2265C158.125 46.6513 158.615 46.986 159.159 47.2091C159.702 47.4322 160.286 47.5389 160.873 47.5222Z" fill="#262626"/>
<path d="M178 50.6603H173.862V27.9976H178.005L178 50.6603Z" fill="#262626"/>
<path d="M39.4294 9.55362C40.4982 9.55067 41.5563 9.76711 42.5387 10.1896C43.521 10.6121 44.4067 11.2318 45.1414 12.0104C46.1132 13.002 47.3556 13.6833 48.7123 13.9686C50.0691 14.2539 51.4796 14.1306 52.7667 13.614C54.0537 13.0974 55.1598 12.2107 55.9458 11.0653C56.7319 9.91999 57.1628 8.56709 57.1845 7.17674C57.2061 5.78639 56.8175 4.42065 56.0676 3.25121C55.3176 2.08177 54.2397 1.16084 52.9693 0.604182C51.699 0.0475273 50.293 -0.120001 48.928 0.122659C47.563 0.365319 46.3001 1.00734 45.2978 1.968C44.5587 2.79019 43.6555 3.44735 42.6468 3.89685C41.6382 4.34635 40.5466 4.57816 39.4429 4.57724C38.401 4.57936 37.3691 4.374 36.407 3.97304C35.4449 3.57208 34.5718 2.98352 33.8382 2.24147C33.2124 1.53948 32.4526 0.970497 31.6038 0.568176C30.755 0.165856 29.8343 -0.0616311 28.8963 -0.100829C27.9583 -0.140027 27.022 0.00985932 26.1427 0.339965C25.2635 0.670072 24.4592 1.17369 23.7773 1.82104C23.0955 2.46839 22.55 3.24633 22.1732 4.10883C21.7963 4.97133 21.5957 5.90088 21.5832 6.84251C21.5707 7.78414 21.7466 8.71872 22.1004 9.59098C22.4543 10.4632 22.979 11.2554 23.6434 11.9208H23.6166C24.3356 12.6791 24.8986 13.572 25.2736 14.5486C25.6485 15.5252 25.8281 16.5663 25.8019 17.6124C25.7758 18.6586 25.5445 19.6894 25.1212 20.6459C24.6979 21.6024 24.091 22.4659 23.335 23.1871C22.579 23.9083 21.6888 24.4731 20.7153 24.8492C19.7417 25.2254 18.7038 25.4055 17.6608 25.3792C16.6179 25.353 15.5903 25.121 14.6367 24.6964C13.6831 24.2718 12.8223 23.663 12.1033 22.9047C10.8006 21.5629 9.0198 20.7951 7.15275 20.7703C5.2857 20.7455 3.48529 21.4657 2.1476 22.7724C0.809912 24.0792 0.0445153 25.8654 0.0197889 27.7382C-0.00493753 29.611 0.713033 31.417 2.01575 32.7588C3.38034 34.2419 4.13551 36.1877 4.1298 38.2059C4.13382 40.2481 3.35631 42.2139 1.95765 43.6979C0.994385 44.7035 0.350214 45.9732 0.106679 47.3463C-0.136856 48.7193 0.0311934 50.1339 0.589556 51.4111C1.14792 52.6883 2.07149 53.7707 3.24336 54.5211C4.41524 55.2715 5.78272 55.6563 7.17273 55.6268C8.56273 55.5973 9.91276 55.1548 11.0519 54.3553C12.1911 53.5557 13.0682 52.4352 13.5721 51.1354C14.0761 49.8357 14.1843 48.4152 13.8831 47.0537C13.5818 45.6922 12.8846 44.451 11.8798 43.4872C10.5759 42.0077 9.86592 40.0953 9.88739 38.1207C9.90886 36.1461 10.6603 34.2498 11.996 32.7992C12.0496 32.7454 12.0988 32.6826 12.1524 32.6243C12.9002 31.8533 13.7953 31.2415 14.7843 30.8255C15.7732 30.4095 16.8357 30.1979 17.908 30.2034C18.9804 30.2088 20.0406 30.4312 21.0253 30.8572C22.01 31.2832 22.899 31.904 23.6389 32.6826C24.9183 34.0231 26.6735 34.8029 28.5229 34.8525C30.3723 34.9021 32.1665 34.2176 33.5156 32.9477C34.8647 31.6777 35.6595 29.925 35.7275 28.0705C35.7954 26.216 35.1309 24.4095 33.8784 23.0436C32.7676 21.9436 32.0087 20.5366 31.6983 19.0022C31.388 17.4677 31.5403 15.8753 32.1358 14.428C32.7314 12.9807 33.7432 11.7441 35.0422 10.876C36.3412 10.0079 37.8685 9.54749 39.4294 9.55362Z" fill="url(#paint0_linear)"/>
<path d="M7.03043 14.1042C10.9132 14.1042 14.0609 10.9469 14.0609 7.05212C14.0609 3.15734 10.9132 0 7.03043 0C3.14763 0 0 3.15734 0 7.05212C0 10.9469 3.14763 14.1042 7.03043 14.1042Z" fill="url(#paint1_linear)"/>
<path d="M50.1383 34.8703C54.0211 34.8703 57.1688 31.713 57.1688 27.8182C57.1688 23.9235 54.0211 20.7661 50.1383 20.7661C46.2555 20.7661 43.1079 23.9235 43.1079 27.8182C43.1079 31.713 46.2555 34.8703 50.1383 34.8703Z" fill="url(#paint2_linear)"/>
<path d="M29.8495 55.5472C33.6821 54.9232 36.2848 51.3007 35.6626 47.4563C35.0405 43.6118 31.4292 41.0012 27.5966 41.6252C23.7639 42.2492 21.1613 45.8717 21.7834 49.7161C22.4056 53.5606 26.0169 56.1713 29.8495 55.5472Z" fill="url(#paint3_linear)"/>
<path d="M50.1383 55.6413C54.0211 55.6413 57.1688 52.484 57.1688 48.5892C57.1688 44.6944 54.0211 41.5371 50.1383 41.5371C46.2555 41.5371 43.1079 44.6944 43.1079 48.5892C43.1079 52.484 46.2555 55.6413 50.1383 55.6413Z" fill="url(#paint4_linear)"/>
</g>
<defs>
<linearGradient id="paint0_linear" x1="3.55069e-05" y1="27.8183" x2="57.1687" y2="27.8183" gradientUnits="userSpaceOnUse">
<stop stop-color="#F15838"/>
<stop offset="1" stop-color="#F68B36"/>
</linearGradient>
<linearGradient id="paint1_linear" x1="0.000488953" y1="7.06668" x2="14.0568" y2="7.06668" gradientUnits="userSpaceOnUse">
<stop stop-color="#F15838"/>
<stop offset="1" stop-color="#F68B36"/>
</linearGradient>
<linearGradient id="paint2_linear" x1="43.1084" y1="27.8328" x2="57.1647" y2="27.8328" gradientUnits="userSpaceOnUse">
<stop stop-color="#F15838"/>
<stop offset="1" stop-color="#F68B36"/>
</linearGradient>
<linearGradient id="paint3_linear" x1="21.7862" y1="49.7304" x2="35.6631" y2="47.4848" gradientUnits="userSpaceOnUse">
<stop stop-color="#F15838"/>
<stop offset="1" stop-color="#F68B36"/>
</linearGradient>
<linearGradient id="paint4_linear" x1="43.1084" y1="48.6038" x2="57.1647" y2="48.6038" gradientUnits="userSpaceOnUse">
<stop stop-color="#F15838"/>
<stop offset="1" stop-color="#F68B36"/>
</linearGradient>
<clipPath id="clip0">
<rect width="178" height="56" fill="white"/>
</clipPath>
</defs>
</svg>
