<svg width="80" height="75" viewBox="0 0 80 75" fill="none" xmlns="http://www.w3.org/2000/svg">
<path fill-rule="evenodd" clip-rule="evenodd" d="M64.2931 0.095855C60.7902 0.470245 56.1631 1.32528 53.0068 2.18165C43.4543 4.77356 36.7964 8.59086 28.9345 15.9831L24.8108 19.8604L18.6209 20.2804C13.8065 20.6072 12.1251 20.8469 11.0535 21.3604C9.92585 21.9007 8.82745 23.2125 5.00715 28.5827C2.35843 32.3062 0.258738 35.6086 0.153789 36.2166C-0.105729 37.7186 0.828819 39.617 2.14211 40.2548C2.74075 40.5454 5.5551 41.1102 8.39551 41.5101L13.5602 42.2364L13.3574 43.1883C12.9005 45.3334 13.9446 46.649 22.2592 54.4029C30.5166 62.1039 31.6396 62.8791 33.9189 62.4511L34.8941 62.2678L35.6677 67.1171C36.0935 69.7841 36.695 72.4266 37.0045 72.9887C37.6838 74.2218 39.7057 75.0993 41.3053 74.8556C41.9536 74.7567 45.4836 72.7768 49.4746 70.2741C58.0526 64.8942 57.6613 65.4674 58.2889 57.3595L58.7258 51.7181L63.0266 47.6635C71.1327 40.0219 75.3963 33.1944 78.0029 23.6821C79.4422 18.4306 79.7892 15.7529 79.8056 9.77235C79.8206 4.39581 79.7749 4.00433 79.0003 2.83424C78.5484 2.15249 77.5845 1.24752 76.8585 0.823186C75.6565 0.121665 75.0879 0.0482602 70.5401 0.00736888C67.7914 -0.0174341 64.9803 0.0224517 64.2931 0.095855ZM74.6452 4.91232C75.4902 5.70568 75.5834 8.19703 74.9897 14.1296C73.9852 24.1738 70.5076 32.5864 64.3938 39.7611C60.0794 44.8246 53.0728 50.4418 47.5037 53.3022L45.1716 54.4998L33.4902 43.5278L21.8087 32.5559L23.4318 29.8818C26.8766 24.206 33.3881 17.3292 38.9711 13.47C47.6897 7.44356 57.9726 4.46084 70.6293 4.28722C73.494 4.248 74.0259 4.33079 74.6452 4.91232ZM50.4452 13.3182C47.7765 14.3089 44.9892 16.9505 44.0044 19.4224C41.0572 26.819 46.541 34.4077 54.8334 34.4077C58.1811 34.4077 60.8169 33.3801 63.1001 31.1843C65.6285 28.7526 66.5574 26.4124 66.3543 22.988C66.1037 18.7731 63.7651 15.415 59.8363 13.6292C57.3286 12.4896 53.0571 12.3478 50.4452 13.3182ZM57.4279 17.4975C63.1876 19.7569 63.1876 27.2722 57.4279 29.5316C52.9318 31.2956 47.8725 28.1114 47.8725 23.5179C47.8725 18.9394 52.9497 15.7405 57.4279 17.4975ZM21.0997 24.8874C21.0997 24.997 20.7799 25.5088 20.389 26.0243C19.2767 27.4907 16.2549 33.3737 15.566 35.4132C15.2236 36.4271 14.8163 37.3871 14.6611 37.5463C14.2773 37.9398 5.39161 36.7134 5.39804 36.2676C5.40089 36.0742 7.12791 33.5027 9.23546 30.5532L13.0679 25.1904L15.0312 24.9936C17.8506 24.7111 21.0997 24.6541 21.0997 24.8874ZM38.3314 56.971C37.1984 57.3062 35.4128 57.6682 34.3644 57.7751L32.4574 57.9702L25.3509 51.3035C17.2744 43.7272 17.6464 44.4093 19.0072 39.6743L19.7704 37.0184L30.0811 46.6899L40.3918 56.3617L38.3314 56.971ZM4.78547 54.2631C2.35486 56.5195 0.278728 58.6925 0.171994 59.092C-0.223529 60.5721 1.47672 62.1418 2.99705 61.6997C3.97372 61.4158 11.3355 54.6868 12.0277 53.4456C12.7134 52.2155 12.6717 51.937 11.6561 50.9838C10.1429 49.5626 9.53924 49.8506 4.78547 54.2631ZM53.4248 58.7843C53.2838 60.7622 53.0796 62.5151 52.9714 62.6797C52.7034 63.0869 41.5909 69.9362 41.1982 69.9362C40.7484 69.9362 39.4744 61.5917 39.8728 61.2566C40.0516 61.1064 41.0811 60.722 42.161 60.4025C44.3485 59.7553 50.6986 56.8587 52.1265 55.8566C52.6338 55.5009 53.191 55.205 53.3648 55.1993C53.5455 55.1932 53.5712 56.735 53.4248 58.7843ZM7.99 64.3304C-0.501252 72.3032 -0.852511 72.7866 0.752427 74.2935C2.35736 75.8005 2.87211 75.4706 11.3634 67.4978C18.2743 61.0092 19.3149 59.8974 19.3149 59.0028C19.3149 57.7406 18.3564 56.8644 16.9753 56.8644C16.1036 56.8644 14.6935 58.0359 7.99 64.3304ZM22.7061 63.8629C21.1697 64.7628 14.4572 71.3051 14.1659 72.1859C13.694 73.6131 15.3657 75.2099 16.9424 74.8385C18.1454 74.555 26.4543 66.5004 26.4543 65.6175C26.4543 64.8134 24.9846 63.2321 24.2393 63.2341C23.9851 63.2348 23.2951 63.5176 22.7061 63.8629Z" fill="#F15A38"/>
</svg>
