<svg width="151" height="92" viewBox="0 0 151 92" fill="none" xmlns="http://www.w3.org/2000/svg">
<path d="M129.463 49.0503H70.423C58.5283 49.0503 48.8857 58.6649 48.8857 70.5252C48.8857 82.3854 58.5283 92 70.423 92H129.463C141.358 92 151 82.3854 151 70.5252C151 58.6649 141.358 49.0503 129.463 49.0503Z" fill="url(#paint0_linear)"/>
<path d="M71.8416 79.2806C71.279 78.9124 70.8734 78.349 70.7037 77.6997C70.5921 77.3156 70.556 76.9136 70.5975 76.5159C70.6961 75.8994 70.8175 75.2489 70.8668 75.0711C70.9161 74.8933 71.4661 74.6929 72.0882 74.6286L72.5509 74.5794C73.173 74.5151 73.6434 74.6135 73.5902 74.7988C73.5371 74.9841 73.4271 75.6422 73.3399 76.2587C73.3399 76.2587 73.3399 76.3116 73.5409 76.6898C73.6559 76.8837 73.8242 77.0405 74.0259 77.1417C74.2277 77.243 74.4543 77.2843 74.6789 77.2609C75.1895 77.2685 75.6878 77.1047 76.0937 76.7957C76.5047 76.4768 76.796 76.0292 76.9206 75.525C77.0846 74.9733 77.0687 74.384 76.8751 73.8419C76.5206 73.035 76.049 72.2844 75.4754 71.6142C74.4639 70.3359 73.8317 69.2731 73.5789 68.4259C73.3158 67.5195 73.3224 66.5564 73.5978 65.6536C73.9101 64.3884 74.6118 63.2523 75.6044 62.4048C76.5575 61.6023 77.771 61.1734 79.0182 61.1983C80.3154 61.1983 81.2258 61.6068 81.7492 62.4161C82.2727 63.2255 82.1096 64.553 82.1096 64.553C82.0337 65.1733 81.9427 65.786 81.9085 65.9146C81.8744 66.0432 81.3358 66.1983 80.7099 66.2663L80.2472 66.3155C79.6251 66.3798 79.1472 66.3155 79.1851 66.1718C79.223 66.0281 79.3406 65.4154 79.443 64.7951C79.4324 64.6326 79.3844 64.4747 79.3027 64.3337C79.2182 64.1531 79.0791 64.0034 78.905 63.9057C78.7308 63.808 78.5303 63.7672 78.3316 63.789C77.8786 63.778 77.4377 63.9357 77.0951 64.2316C76.7161 64.5757 76.4514 65.0269 76.3365 65.525C76.1758 66.0658 76.1998 66.6445 76.4047 67.1703C76.7718 67.9785 77.234 68.7403 77.7816 69.4395C78.5614 70.4279 79.1938 71.5234 79.6592 72.6921C79.9272 73.575 79.9272 74.5172 79.6592 75.4001C79.4328 76.2443 79.0265 77.0299 78.4682 77.7035C77.9222 78.3693 77.2375 78.9087 76.4616 79.2844C75.6948 79.6612 74.8511 79.8566 73.9961 79.8555C73.2366 79.8816 72.4865 79.6815 71.8416 79.2806Z" fill="white"/>
<path d="M85.5232 62.5525C85.6212 62.2451 85.8117 61.9753 86.0689 61.7797C86.3262 61.5841 86.6376 61.4723 86.9608 61.4595H88.9977C89.7599 61.4701 90.5205 61.5346 91.2736 61.6524C91.9353 61.779 92.5343 62.1257 92.9729 62.6357C93.5342 63.4224 93.4015 64.6554 93.4015 64.6554C93.3112 65.3934 93.1731 66.1249 92.988 66.8452C92.7782 67.5609 92.5249 68.2631 92.2294 68.9481C91.86 69.7533 91.3234 70.4714 90.6553 71.0547C89.9591 71.5598 89.158 71.9023 88.3111 72.057C87.6833 72.1561 87.0499 72.2154 86.4146 72.2347C85.986 72.2347 85.5004 72.7264 85.3373 73.3278L83.9187 78.4979C83.8208 78.8053 83.6302 79.0752 83.373 79.2707C83.1157 79.4663 82.8043 79.5781 82.4811 79.591H82.0032C81.8668 79.6004 81.7302 79.5759 81.6056 79.5198C81.4809 79.4636 81.3722 79.3776 81.2892 79.2693C81.2061 79.161 81.1513 79.0338 81.1296 78.8992C81.1079 78.7646 81.12 78.6267 81.1649 78.4979L85.5232 62.5525ZM87.0404 69.644C87.6119 69.6297 88.1819 69.5804 88.7473 69.4965L89.1267 69.2053L89.506 68.9102C89.7833 68.2443 90.0202 67.5623 90.2153 66.8679V66.8263C90.3927 66.1541 90.5307 65.4722 90.6287 64.784L90.4163 64.4889L90.2001 64.1939C89.6613 64.1112 89.1178 64.0632 88.5729 64.0502C88.1935 64.0502 87.7232 64.5419 87.5601 65.1433L86.6232 68.5472C86.4829 69.1523 86.6535 69.644 87.048 69.644H87.0404Z" fill="white"/>
<path d="M99.1101 79.5908C98.8083 79.5908 98.5189 79.4713 98.3055 79.2585C98.0921 79.0457 97.9722 78.7571 97.9722 78.4562L98.0101 73.2406C98.0101 72.6166 97.6953 72.106 97.3008 72.106C96.9063 72.106 96.4512 72.5977 96.2881 73.199L94.8353 78.494C94.7369 78.8011 94.5462 79.0707 94.2891 79.2661C94.0319 79.4616 93.7208 79.5737 93.3977 79.587H92.9312C92.7945 79.5974 92.6573 79.5736 92.5322 79.5178C92.4071 79.4619 92.2979 79.3758 92.2147 79.2672C92.1314 79.1587 92.0766 79.0311 92.0554 78.896C92.0341 78.761 92.047 78.6228 92.0929 78.494L96.4663 62.5486C96.5643 62.2412 96.7549 61.9714 97.0121 61.7758C97.2693 61.5802 97.5807 61.4684 97.9039 61.4556H99.9408C100.697 61.4667 101.451 61.5312 102.198 61.6485C102.86 61.7742 103.459 62.1211 103.897 62.6318C104.458 63.4223 104.31 64.6741 104.31 64.6741C104.231 65.3902 104.104 66.1002 103.931 66.7997C103.779 67.3481 103.476 68.2747 103.252 68.8572C103.075 69.2656 102.841 69.6475 102.558 69.9918C102.313 70.324 102.022 70.6195 101.693 70.8693C101.416 71.0746 101.188 71.339 101.026 71.6432C100.864 71.9474 100.772 72.2838 100.756 72.6279L100.821 78.4675C100.821 78.7684 100.701 79.057 100.488 79.2698C100.274 79.4826 99.9847 79.6022 99.6829 79.6022L99.1101 79.5908ZM97.5929 68.4184C97.4298 69.0236 97.6157 69.5153 98.0101 69.5153C98.5815 69.499 99.1514 69.4498 99.717 69.3678L100.096 69.0727L100.476 68.7815C100.747 68.1288 100.98 67.4608 101.174 66.7808C101.34 66.1234 101.467 65.4565 101.553 64.7838L101.34 64.4888L101.128 64.1938C100.589 64.1114 100.046 64.0634 99.5008 64.0501C99.1215 64.0501 98.6512 64.5418 98.4843 65.1431L97.5929 68.4184Z" fill="white"/>
<path d="M107.762 62.5524C107.861 62.2453 108.052 61.9758 108.309 61.7803C108.566 61.5848 108.877 61.4728 109.2 61.4594H109.678C109.815 61.449 109.952 61.4728 110.077 61.5287C110.202 61.5845 110.311 61.6706 110.394 61.7792C110.478 61.8878 110.533 62.0154 110.554 62.1504C110.575 62.2854 110.562 62.4236 110.516 62.5524L106.143 78.4979C106.045 78.8052 105.854 79.0751 105.597 79.2707C105.34 79.4662 105.028 79.578 104.705 79.5909H104.227C104.091 79.6003 103.954 79.5758 103.83 79.5197C103.705 79.4636 103.596 79.3775 103.513 79.2692C103.43 79.1609 103.375 79.0337 103.354 78.8991C103.332 78.7645 103.344 78.6266 103.389 78.4979L107.762 62.5524Z" fill="white"/>
<path d="M113.531 62.5525C113.629 62.2451 113.82 61.9753 114.077 61.7797C114.334 61.5841 114.646 61.4723 114.969 61.4595H115.728C116.028 61.4653 116.314 61.5867 116.526 61.7982C116.738 62.0098 116.86 62.295 116.866 62.5941L117.002 72.4995C117.002 73.1236 117.154 73.1425 117.321 72.5411L120.059 62.5525C120.157 62.2451 120.348 61.9753 120.605 61.7797C120.862 61.5841 121.174 61.4723 121.497 61.4595H121.922C122.058 61.4501 122.195 61.4745 122.319 61.5307C122.444 61.5868 122.553 61.6729 122.636 61.7812C122.719 61.8895 122.774 62.0166 122.795 62.1512C122.817 62.2859 122.805 62.4237 122.76 62.5525L118.387 78.4979C118.289 78.8053 118.098 79.0752 117.841 79.2708C117.584 79.4663 117.272 79.5781 116.949 79.591H116.335C116.029 79.5875 115.737 79.4682 115.517 79.2574C115.297 79.0466 115.166 78.7601 115.151 78.4563L114.772 69.1145C114.745 68.4942 114.59 68.4753 114.427 69.0767L111.843 78.4942C111.745 78.8013 111.554 79.0708 111.297 79.2663C111.04 79.4618 110.729 79.5738 110.406 79.5872H110C109.863 79.5976 109.726 79.5738 109.601 79.518C109.476 79.4621 109.367 79.376 109.284 79.2674C109.2 79.1588 109.145 79.0312 109.124 78.8962C109.103 78.7612 109.116 78.623 109.162 78.4942L113.531 62.5525Z" fill="white"/>
<path d="M124.911 62.5525C125.009 62.2451 125.2 61.9753 125.457 61.7797C125.714 61.5841 126.026 61.4723 126.349 61.4595H132.854C132.99 61.4501 133.127 61.4745 133.252 61.5307C133.376 61.5868 133.485 61.6729 133.568 61.7812C133.651 61.8895 133.706 62.0166 133.728 62.1512C133.749 62.2859 133.737 62.4237 133.692 62.5525L133.582 62.9534C133.483 63.261 133.291 63.5309 133.034 63.7269C132.776 63.9229 132.465 64.0358 132.141 64.0502H131.405C131.082 64.0631 130.77 64.1749 130.513 64.3705C130.256 64.566 130.065 64.8359 129.967 65.1433L126.311 78.4979C126.213 78.8053 126.022 79.0752 125.765 79.2707C125.508 79.4663 125.196 79.5781 124.873 79.591H124.395C124.259 79.6004 124.122 79.5759 123.998 79.5198C123.873 79.4637 123.764 79.3776 123.681 79.2693C123.598 79.161 123.543 79.0338 123.522 78.8992C123.5 78.7646 123.512 78.6267 123.557 78.4979L127.221 65.1433C127.266 65.0145 127.278 64.8766 127.256 64.742C127.235 64.6074 127.18 64.4802 127.097 64.3719C127.014 64.2636 126.905 64.1776 126.781 64.1214C126.656 64.0653 126.519 64.0408 126.383 64.0502H125.643C125.506 64.0599 125.369 64.0355 125.244 63.9792C125.119 63.9228 125.01 63.8364 124.927 63.7276C124.844 63.6187 124.789 63.491 124.768 63.3559C124.747 63.2207 124.759 63.0824 124.805 62.9534L124.911 62.5525Z" fill="white"/>
<path d="M112.121 0H21.5373C9.64257 0 0 9.61462 0 21.4749C0 33.3351 9.64257 42.9497 21.5373 42.9497H112.121C124.015 42.9497 133.658 33.3351 133.658 21.4749C133.658 9.61462 124.015 0 112.121 0Z" fill="url(#paint1_linear)"/>
<path d="M41.4322 30.2305C40.8706 29.8613 40.4654 29.2983 40.2943 28.6496C40.1827 28.2655 40.1466 27.8635 40.1881 27.4658C40.2867 26.8493 40.4081 26.1988 40.4574 26.021C40.5067 25.8433 41.0567 25.6428 41.6788 25.5785L42.1415 25.5293C42.7674 25.4651 43.2339 25.5634 43.1846 25.7487C43.1353 25.934 43.0177 26.5921 42.9305 27.2086C42.9305 27.2086 42.9305 27.2616 43.1315 27.6398C43.2465 27.8336 43.4148 27.9904 43.6165 28.0917C43.8182 28.1929 44.0448 28.2343 44.2695 28.2109C44.78 28.2185 45.2784 28.0546 45.6843 27.7457C46.0959 27.4259 46.3894 26.9789 46.5188 26.4749C46.6792 25.9228 46.6633 25.3345 46.4732 24.7918C46.1155 23.9857 45.6428 23.2354 45.0698 22.5642C44.0583 21.2858 43.4261 20.223 43.1732 19.3758C42.9066 18.4709 42.9066 17.5085 43.1732 16.6036C43.4868 15.3379 44.1898 14.2019 45.1836 13.3547C46.1312 12.5556 47.3376 12.1269 48.5784 12.1482C49.8795 12.1482 50.786 12.5529 51.3095 13.3661C51.8329 14.1792 51.6698 15.503 51.6698 15.503C51.594 16.1232 51.5029 16.7359 51.4688 16.8645C51.4346 16.9931 50.896 17.1482 50.2739 17.2163L49.8074 17.2616C49.1853 17.3297 48.7074 17.2616 48.7491 17.1217C48.7908 16.9818 48.9008 16.3653 49.007 15.745C48.9928 15.5827 48.9436 15.4253 48.8629 15.2836C48.7787 15.1094 48.6431 14.9649 48.4743 14.8696C48.3056 14.7743 48.1116 14.7327 47.9184 14.7503C47.4649 14.7394 47.0233 14.8956 46.6781 15.189C46.2999 15.5354 46.0355 15.9876 45.9195 16.4863C45.7627 17.0276 45.7867 17.605 45.9877 18.1315C46.3548 18.9397 46.817 19.7015 47.3646 20.4008C48.1518 21.3874 48.7907 22.4831 49.2612 23.6534C49.531 24.536 49.531 25.4788 49.2612 26.3614C49.0347 27.2056 48.6285 27.9912 48.0702 28.6647C47.5248 29.3296 46.8415 29.8689 46.0674 30.2456C45.299 30.6221 44.4542 30.8175 43.5981 30.8167C42.8336 30.8418 42.0791 30.6376 41.4322 30.2305Z" fill="white"/>
<path d="M54.1542 13.5022C54.2522 13.1948 54.4428 12.925 54.7 12.7294C54.9572 12.5338 55.2686 12.422 55.5918 12.4092H62.097C62.2334 12.3998 62.3701 12.4242 62.4947 12.4804C62.6193 12.5365 62.728 12.6226 62.811 12.7309C62.8941 12.8392 62.9489 12.9663 62.9706 13.1009C62.9923 13.2356 62.9802 13.3734 62.9353 13.5022L62.8253 13.9031C62.727 14.2107 62.5365 14.4807 62.2794 14.6769C62.0223 14.873 61.7111 14.9858 61.3877 14.9999H60.6291C60.306 15.0133 59.9949 15.1253 59.7377 15.3208C59.4806 15.5163 59.2899 15.7859 59.1915 16.093L55.5311 29.4476C55.4315 29.7548 55.24 30.0241 54.9823 30.2195C54.7247 30.4149 54.4132 30.527 54.0898 30.5407H53.6118C53.4754 30.5501 53.3388 30.5256 53.2142 30.4695C53.0896 30.4134 52.9809 30.3273 52.8978 30.219C52.8148 30.1107 52.7599 29.9835 52.7383 29.8489C52.7166 29.7143 52.7287 29.5764 52.7736 29.4476L56.4377 16.093C56.4836 15.9642 56.4965 15.826 56.4752 15.691C56.4539 15.5559 56.3992 15.4283 56.3159 15.3197C56.2326 15.2112 56.1235 15.125 55.9984 15.0692C55.8732 15.0133 55.7361 14.9895 55.5994 14.9999H54.8636C54.7267 15.0096 54.5896 14.9852 54.4646 14.9289C54.3395 14.8725 54.2305 14.7861 54.1474 14.6773C54.0642 14.5685 54.0095 14.4407 53.9882 14.3056C53.9669 14.1704 53.9796 14.0321 54.0253 13.9031L54.1542 13.5022Z" fill="white"/>
<path d="M65.693 27.6508C65.7159 27.5085 65.7071 27.3629 65.6671 27.2244C65.6272 27.086 65.5571 26.958 65.4618 26.8496C65.3665 26.7412 65.2484 26.6552 65.116 26.5975C64.9835 26.5399 64.8399 26.5121 64.6954 26.5162H64.0089C63.6756 26.5329 63.353 26.6386 63.0747 26.8223C62.7965 27.0059 62.5728 27.2607 62.4271 27.56L61.6154 29.5003C61.4697 29.7996 61.2461 30.0544 60.9678 30.238C60.6896 30.4216 60.3669 30.5274 60.0337 30.5441H59.552C59.4223 30.5622 59.2901 30.5429 59.1711 30.4885C59.052 30.4341 58.9511 30.3469 58.8801 30.2372C58.8091 30.1274 58.7711 29.9997 58.7705 29.8692C58.7699 29.7386 58.8068 29.6106 58.8768 29.5003L65.9471 13.4414C66.098 13.1435 66.3251 12.8908 66.6056 12.7088C66.8861 12.5268 67.2098 12.422 67.544 12.4051H68.9551C69.1002 12.4015 69.2443 12.4295 69.3775 12.487C69.5107 12.5445 69.6298 12.6301 69.7264 12.7381C69.8231 12.846 69.8951 12.9736 69.9375 13.112C69.9798 13.2504 69.9915 13.3964 69.9716 13.5397L68.2572 29.4246C68.2182 29.7327 68.0697 30.0167 67.8386 30.2249C67.6075 30.4331 67.3092 30.5517 66.9978 30.5592H66.4668C66.3223 30.5633 66.1787 30.5355 66.0463 30.4779C65.9138 30.4202 65.7957 30.3342 65.7004 30.2258C65.6052 30.1174 65.535 29.9895 65.4951 29.851C65.4551 29.7125 65.4463 29.5669 65.4692 29.4246L65.693 27.6508ZM65.0747 23.8687C65.3856 23.8583 65.6828 23.7387 65.9139 23.5311C66.145 23.3235 66.2951 23.0412 66.3378 22.734L67.013 17.3975C67.0927 16.7772 66.9599 16.7432 66.7171 17.3181L64.3996 22.8135C64.3266 22.9249 64.2872 23.0549 64.2861 23.188C64.285 23.3211 64.3222 23.4517 64.3932 23.5643C64.4643 23.677 64.5663 23.7669 64.6871 23.8236C64.8079 23.8802 64.9424 23.9011 65.0747 23.8838V23.8687Z" fill="white"/>
<path d="M77.5844 30.5407C77.2826 30.5407 76.9932 30.4211 76.7798 30.2083C76.5664 29.9955 76.4465 29.7069 76.4465 29.406L76.492 24.2056C76.492 23.5816 76.181 23.071 75.7865 23.071C75.392 23.071 74.9368 23.5626 74.7737 24.164L73.321 29.459C73.2213 29.7661 73.0298 30.0355 72.7722 30.2309C72.5145 30.4262 72.203 30.5383 71.8796 30.552H71.4016C71.263 30.5643 71.1234 30.5414 70.996 30.4856C70.8685 30.4297 70.7573 30.3427 70.6725 30.2326C70.5878 30.1224 70.5323 29.9927 70.5112 29.8555C70.4902 29.7183 70.5042 29.578 70.552 29.4476L74.9368 13.5022C75.0353 13.1951 75.2259 12.9256 75.4831 12.7301C75.7402 12.5346 76.0513 12.4226 76.3744 12.4092H78.4113C79.1736 12.4198 79.9341 12.4843 80.6872 12.6021C81.3489 12.7287 81.948 13.0754 82.3865 13.5854C82.9517 14.3721 82.8151 15.6051 82.8151 15.6051C82.7337 16.3208 82.607 17.0308 82.4358 17.7306C82.2841 18.279 81.9806 19.2056 81.7568 19.7881C81.5793 20.1965 81.3457 20.5784 81.0627 20.9227C80.818 21.255 80.5268 21.5505 80.1979 21.8002C79.9205 22.0055 79.6925 22.2699 79.5304 22.5741C79.3683 22.8783 79.2763 23.2147 79.261 23.5589L79.3255 29.3985C79.3255 29.6994 79.2056 29.988 78.9922 30.2008C78.7788 30.4135 78.4893 30.5331 78.1875 30.5331L77.5844 30.5407ZM76.0672 19.3683C75.9041 19.9734 76.0899 20.4651 76.4806 20.4651C77.052 20.449 77.6219 20.3998 78.1875 20.3176L78.5668 20.0226L78.9461 19.7314C79.2201 19.0782 79.4569 18.4103 79.6555 17.7306C79.8223 17.0732 79.9489 16.4063 80.0348 15.7337L79.8224 15.4387L79.6061 15.1437C79.0686 15.0611 78.5264 15.0131 77.9827 14.9999C77.6034 14.9999 77.133 15.4916 76.9661 16.093L76.0672 19.3683Z" fill="white"/>
<path d="M85.3034 13.5019C85.4018 13.1948 85.5925 12.9252 85.8496 12.7297C86.1067 12.5342 86.4179 12.4222 86.741 12.4088H93.2499C93.3851 12.4018 93.5199 12.428 93.6424 12.4853C93.765 12.5425 93.8715 12.629 93.9525 12.7371C94.0335 12.8452 94.0865 12.9715 94.1069 13.1049C94.1273 13.2383 94.1143 13.3747 94.0693 13.5019L93.9593 13.9028C93.8615 14.2106 93.6711 14.481 93.4139 14.6772C93.1567 14.8734 92.8452 14.986 92.5217 14.9996H91.7934C91.4702 15.0124 91.1588 15.1242 90.9015 15.3198C90.6443 15.5154 90.4538 15.7852 90.3558 16.0926L86.6917 29.4473C86.5932 29.7544 86.4025 30.0239 86.1454 30.2194C85.8883 30.4149 85.5771 30.5269 85.2541 30.5403H84.7761C84.6394 30.5507 84.5023 30.5269 84.3772 30.4711C84.2521 30.4152 84.1429 30.3291 84.0596 30.2205C83.9764 30.1119 83.9216 29.9843 83.9003 29.8493C83.8791 29.7143 83.892 29.5761 83.9379 29.4473L87.621 16.0926C87.6658 15.9638 87.678 15.826 87.6563 15.6913C87.6346 15.5567 87.5798 15.4296 87.4967 15.3213C87.4136 15.213 87.3049 15.1269 87.1803 15.0708C87.0557 15.0146 86.9191 14.9902 86.7827 14.9996H86.043C85.9062 15.0093 85.7691 14.9849 85.644 14.9285C85.519 14.8722 85.41 14.7857 85.3268 14.6769C85.2437 14.5681 85.189 14.4404 85.1677 14.3052C85.1464 14.1701 85.1591 14.0318 85.2048 13.9028L85.3034 13.5019Z" fill="white"/>
<path d="M92.8857 29.6215C92.5261 29.0412 92.3625 28.3612 92.4192 27.6813C92.5075 26.9317 92.6456 26.1888 92.8326 25.4574L96.1137 13.5022C96.2116 13.1948 96.4022 12.9249 96.6594 12.7293C96.9166 12.5338 97.228 12.422 97.5513 12.4091H98.0292C98.1656 12.3997 98.3022 12.4241 98.4268 12.4803C98.5514 12.5364 98.6601 12.6225 98.7432 12.7308C98.8263 12.8391 98.8811 12.9663 98.9028 13.1009C98.9245 13.2355 98.9123 13.3734 98.8675 13.5022L95.5864 25.4574C95.4096 26.1219 95.2728 26.7963 95.1768 27.4771L95.3816 27.7683C95.4943 27.9191 95.6435 28.0389 95.8154 28.1163C95.9873 28.1937 96.1761 28.2262 96.364 28.2108C96.812 28.2122 97.246 28.0554 97.5892 27.7683L97.9685 27.4771C98.2374 26.8173 98.4692 26.143 98.6626 25.4574L101.944 13.5022C102.042 13.1948 102.232 12.9249 102.489 12.7293C102.747 12.5338 103.058 12.422 103.381 12.4091H103.806C103.943 12.3987 104.08 12.4225 104.205 12.4784C104.33 12.5342 104.439 12.6203 104.523 12.7289C104.606 12.8375 104.661 12.9651 104.682 13.1001C104.703 13.2352 104.69 13.3733 104.644 13.5022L101.367 25.4574C101.158 26.1832 100.905 26.8955 100.609 27.5905C100.241 28.3694 99.7125 29.0616 99.0571 29.6215C98.0995 30.3948 96.9021 30.812 95.6699 30.8016C94.3916 30.8016 93.4661 30.4082 92.8857 29.6215Z" fill="white"/>
<path d="M107.542 13.5022C107.641 13.1951 107.831 12.9256 108.089 12.7301C108.346 12.5346 108.657 12.4226 108.98 12.4092H111.017C111.779 12.4198 112.54 12.4843 113.293 12.6021C113.954 12.7287 114.553 13.0754 114.992 13.5854C115.557 14.3721 115.421 15.6051 115.421 15.6051C115.33 16.3431 115.192 17.0746 115.007 17.7949C114.797 18.5106 114.544 19.2129 114.249 19.8978C113.874 20.7052 113.331 21.4234 112.655 22.0044C111.96 22.5092 111.161 22.8517 110.315 23.0067C109.687 23.1058 109.054 23.1651 108.418 23.1844C107.99 23.1844 107.504 23.6761 107.337 24.2775L105.923 29.4476C105.823 29.7547 105.632 30.0241 105.374 30.2195C105.116 30.4149 104.805 30.527 104.481 30.5406H104.007C103.871 30.5494 103.735 30.5245 103.611 30.468C103.487 30.4116 103.379 30.3255 103.296 30.2173C103.213 30.1091 103.159 29.9822 103.137 29.8479C103.116 29.7136 103.128 29.5761 103.173 29.4476L107.542 13.5022ZM109.06 20.5937C109.631 20.5795 110.201 20.5303 110.766 20.4462L111.146 20.155L111.525 19.8599C111.8 19.1922 112.036 18.509 112.231 17.8138V17.776C112.415 17.1049 112.557 16.4227 112.655 15.7337L112.443 15.4387L112.227 15.1436C111.689 15.0611 111.147 15.0131 110.603 14.9999C110.224 14.9999 109.754 15.4916 109.587 16.093L108.654 19.4969C108.483 20.102 108.673 20.5937 109.067 20.5937H109.06Z" fill="white"/>
<defs>
<linearGradient id="paint0_linear" x1="48.8857" y1="70.5252" x2="151" y2="70.5252" gradientUnits="userSpaceOnUse">
<stop stop-color="#F68B36"/>
<stop offset="1" stop-color="#F15838"/>
</linearGradient>
<linearGradient id="paint1_linear" x1="0" y1="2438.69" x2="47097" y2="2438.69" gradientUnits="userSpaceOnUse">
<stop stop-color="#F68B36"/>
<stop offset="1" stop-color="#F15838"/>
</linearGradient>
</defs>
</svg>
