<svg width="73" height="75" viewBox="0 0 73 75" fill="none" xmlns="http://www.w3.org/2000/svg">
<path fill-rule="evenodd" clip-rule="evenodd" d="M13.5291 0.460097C10.5291 1.56732 8.24837 3.96983 7.47139 6.84063C6.93775 8.81171 7.20441 11.8696 8.06077 13.6067L8.72435 14.9522L6.98829 15.5184C4.70498 16.2633 2.26776 18.5377 1.08609 21.0274L0.178855 22.9391L0.0894276 46.4191L0 69.8991L0.762402 71.3929C2.75864 75.3052 7.41113 76.1932 10.6234 73.2755C12.7314 71.3604 12.7926 71 12.9161 59.7293L13.0272 49.589H14.9463H16.8655V59.0817C16.8655 70.104 17.0453 71.2303 19.1154 73.1648C21.483 75.3779 24.6687 75.6086 27.1522 73.7471C29.6555 71.8712 29.6435 71.9493 29.8259 56.3758L29.988 42.5467L31.122 44.1249C32.618 46.2069 34.0644 47.0514 36.1309 47.049C38.3355 47.0463 40.1062 46.0853 41.4904 44.1403L42.6244 42.5467L42.7864 56.3758C42.9688 71.9493 42.9569 71.8712 45.4602 73.7471C47.9437 75.6086 51.1294 75.3779 53.497 73.1648C55.5671 71.2303 55.7469 70.104 55.7469 59.0817V49.589H57.853H59.9591V59.8238C59.9591 71.1572 60.007 71.475 61.989 73.2755C65.2013 76.1932 69.8537 75.3052 71.85 71.3929L72.6124 69.8991L72.5229 46.4191C72.4351 23.3521 72.4215 22.9123 71.7512 21.4136C70.4557 18.5173 67.9868 16.2385 65.2116 15.3783L63.8812 14.966L64.5843 13.5889C65.6374 11.5277 65.5978 7.44168 64.5037 5.22522C62.3966 0.957224 57.4052 -1.05408 53.0975 0.628711C50.9237 1.47815 48.8114 3.5089 47.8485 5.67542C46.9117 7.7836 46.926 11.349 47.8792 13.3204C48.3649 14.3247 48.4605 14.8014 48.1929 14.8872C47.9816 14.9549 47.2254 15.1959 46.5126 15.4229C43.4179 16.4067 42.0114 17.8586 38.9106 23.269C37.644 25.4787 36.5035 27.3942 36.3762 27.5256C36.2485 27.6573 35.1268 25.9336 33.8835 23.6951C32.64 21.4565 31.2746 19.1968 30.8492 18.6735C29.7903 17.3718 27.6599 15.9123 26.0998 15.4199C25.387 15.1946 24.6307 14.9549 24.4195 14.8872C24.1518 14.8014 24.2474 14.3247 24.7331 13.3204C25.6864 11.349 25.7006 7.7836 24.7639 5.67542C22.8354 1.33636 17.6622 -1.06514 13.5291 0.460097ZM18.3977 4.99291C20.1843 5.83196 21.0754 7.34178 21.0754 9.53042C21.0754 12.6201 19.1673 14.5258 16.1121 14.4873C12.1304 14.4373 9.98572 9.48785 12.5691 6.31133C14.1687 4.34427 16.0911 3.90949 18.3977 4.99291ZM58.1216 4.79178C59.5249 5.39853 60.8527 7.08099 61.1287 8.60254C61.6617 11.5437 59.3749 14.4514 56.5002 14.4873C53.4451 14.5258 51.537 12.6201 51.537 9.53042C51.537 7.34178 52.4281 5.83196 54.2147 4.99291C55.8503 4.22459 56.7076 4.18068 58.1216 4.79178ZM25.4518 19.8159C27.0573 20.723 28.0189 22.03 30.9305 27.2608L33.7089 32.2528L32.7197 34.0419C32.1754 35.0258 31.6122 35.9064 31.4677 35.9989C31.3232 36.0911 30.6745 35.3402 30.0262 34.3298C29.0114 32.7486 28.7045 32.4928 27.8232 32.4928C27.2598 32.4928 26.5324 32.7426 26.2064 33.0476C25.6465 33.5719 25.6138 34.5816 25.6138 51.3321V69.0621L24.8183 69.8847C23.8544 70.8823 22.9164 70.934 22.0497 70.0373C21.4276 69.3936 21.4016 68.92 21.4016 58.1823C21.4016 47.3745 21.379 46.9679 20.73 46.1144L20.0586 45.2311H14.96C11.0699 45.2311 9.71194 45.3438 9.23207 45.7065C8.63589 46.1573 8.59474 46.7926 8.44116 57.9694C8.28758 69.1462 8.24643 69.7815 7.65025 70.2323C6.73426 70.9246 5.92586 70.8176 5.02445 69.8847L4.229 69.0621L4.23095 47.1737C4.23192 32.9343 4.35148 24.8432 4.57246 24.0195C4.93438 22.6713 6.46274 20.6479 7.59452 20.0187C8.99393 19.2407 10.3901 19.1227 17.3515 19.1941C23.2492 19.2544 24.6476 19.3617 25.4518 19.8159ZM64.6903 19.8226C66.1188 20.6305 67.6427 22.5396 68.0399 24.0195C68.2609 24.8432 68.3805 32.9343 68.3814 47.1737L68.3834 69.0621L67.5879 69.8847C66.6865 70.8176 65.8781 70.9246 64.9621 70.2323C64.366 69.7815 64.3248 69.1462 64.1712 57.9694C64.0176 46.7926 63.9765 46.1573 63.3803 45.7065C62.9004 45.3438 61.5425 45.2311 57.6524 45.2311H52.5538L51.8824 46.1144C51.2334 46.9679 51.2107 47.3745 51.2107 58.1823C51.2107 68.92 51.1848 69.3936 50.5627 70.0373C49.696 70.934 48.758 70.8823 47.794 69.8847L46.9986 69.0621V51.3904C46.9986 31.7195 47.087 32.4928 44.839 32.4928C43.8038 32.4928 43.6311 32.6879 41.2017 36.5993C39.7987 38.858 38.3309 41.1207 37.9399 41.6275C36.6963 43.2399 34.3621 42.6137 34.3621 40.6678C34.3621 39.4885 44.4182 22.1192 45.8581 20.8112C46.4918 20.2353 47.4088 19.6734 47.8955 19.5625C48.3824 19.4515 48.9265 19.304 49.1047 19.2346C49.2829 19.1656 52.6364 19.1415 56.5569 19.1817C62.5557 19.2427 63.8446 19.3443 64.6903 19.8226Z" fill="#F15A38"/>
</svg>
